<svg width="483" height="55" viewBox="0 0 483 55" fill="none" xmlns="http://www.w3.org/2000/svg">
<g clip-path="url(#clip0_56_1042)">
<path d="M237.305 52.3192C237.781 50.8504 238.608 48.8568 239.783 46.3383C240.888 44.0217 242.196 41.5031 243.702 38.7979C245.222 36.0169 246.941 33.0189 248.851 29.8039C250.823 26.503 252.8 23.3738 254.787 20.4162C256.678 17.6251 258.482 15.1117 260.205 12.8758C262.06 10.4279 263.551 8.4999 264.676 7.09175C265.163 6.476 265.517 6.05709 265.745 5.82997C265.968 5.60284 266.166 5.48676 266.333 5.47667C266.379 5.46657 266.425 5.45648 266.46 5.45648C266.769 5.45648 267.129 5.60284 267.545 5.90063C267.783 6.07728 268.026 6.27411 268.275 6.49619C268.523 6.71826 268.736 6.92519 268.918 7.12708C269.071 7.32897 269.167 7.55104 269.202 7.8034V7.90939C269.202 8.13651 269.136 8.42924 269.005 8.79768C268.635 9.70617 268.113 10.8014 267.438 12.0783L267.296 12.361C267.251 12.467 267.195 12.5729 267.134 12.6789C266.577 13.8044 266.034 14.93 265.512 16.0656C265.016 17.2012 264.509 18.3923 263.997 19.6339C263.926 19.8105 263.855 19.9922 263.784 20.184C263.201 21.6023 262.608 23.0861 262 24.6356C261.407 26.2204 260.864 27.8153 260.378 29.4253C259.891 30.9748 259.511 32.4536 259.237 33.8618C258.953 35.2598 258.776 36.673 258.705 38.1014C258.695 38.4799 258.685 38.8534 258.685 39.2168C258.685 40.307 258.751 41.3265 258.882 42.2854C259.07 43.4917 259.344 44.3649 259.704 44.91C259.977 45.4197 260.423 45.6721 261.042 45.6721H261.219C261.979 45.6721 263.008 45.3743 264.301 44.7838C265.629 44.1327 267.063 43.1334 268.594 41.7858C270.079 40.413 271.534 38.8181 272.958 36.996C274.418 35.1387 275.726 33.3621 276.876 31.6713C277.936 30.1319 278.868 28.6329 279.674 27.1642C280.566 25.5693 281.423 23.8886 282.239 22.1272C283.01 20.4364 283.719 18.7506 284.358 17.0699C285.047 15.3186 285.635 13.6631 286.122 12.1036C286.563 10.5995 286.872 9.31249 287.049 8.23745C287.13 7.83368 287.176 7.42486 287.176 7.011C287.176 6.63246 287.125 6.14289 287.024 5.54733C286.923 4.95176 286.624 4.39153 286.122 3.87168C285.66 3.39725 285.017 3.16003 284.196 3.16003C284.099 3.16003 284.003 3.16508 283.912 3.18022C283.542 3.22564 283.157 3.29126 282.751 3.37706C282.416 3.43762 282.133 3.48305 281.894 3.51838H281.788C281.611 3.51838 281.474 3.49314 281.388 3.43762C281.301 3.3821 281.256 3.3064 281.256 3.20041V3.12975C281.256 2.90263 281.423 2.67046 281.752 2.4181C282.193 2.13546 282.756 1.99414 283.445 1.99414C284.702 2.0648 285.762 2.52409 286.618 3.36696C287.475 4.20983 288.099 5.23945 288.489 6.44572C288.823 7.42991 288.986 8.39391 288.986 9.33773C288.986 9.56485 288.975 9.78692 288.95 10.014C288.747 11.6342 288.327 13.3653 287.683 15.2126C287.09 17.0094 286.487 18.68 285.883 20.2143C285.275 21.7184 284.702 23.0508 284.155 24.2268C283.714 25.1353 283.268 26.0286 282.817 26.9068L282.462 27.6185C281.869 28.7995 281.22 30.0159 280.521 31.2574C279.796 32.489 279.015 33.6801 278.184 34.8409C277.378 36.0119 276.532 37.1525 275.655 38.2679C274.753 39.3934 273.86 40.4382 272.984 41.4072C272.127 42.3662 271.296 43.2192 270.49 43.9611C269.669 44.7182 268.802 45.3692 267.89 45.9143C266.916 46.4695 265.958 46.8783 265.021 47.1408C264.438 47.2821 263.88 47.3528 263.348 47.3528C263.084 47.3528 262.826 47.3326 262.562 47.2973C261.741 47.166 260.945 46.8985 260.175 46.4998C259.379 46.0859 258.7 45.5863 258.142 45.0109C257.595 44.4305 257.174 43.7844 256.875 43.0778C256.566 42.3813 256.343 41.5385 256.196 40.5593C256.064 39.5751 255.998 38.5102 255.998 37.3645V37.0818C255.998 35.8756 256.115 34.6087 256.353 33.2864C256.591 31.9741 257.012 30.3893 257.62 28.532C258.264 26.498 258.994 24.3984 259.81 22.2332C260.596 20.1992 261.331 18.4226 262.02 16.9084C262.628 15.5608 263.14 14.4404 263.571 13.5571C263.642 13.4158 263.708 13.2795 263.769 13.1483L263.875 12.9363C264.194 12.2499 264.382 11.8462 264.428 11.7301C264.438 11.7048 264.448 11.6897 264.448 11.6746C264.448 11.6594 264.443 11.6544 264.428 11.6544C264.412 11.6544 264.387 11.6796 264.346 11.725C264.306 11.7704 264.24 11.8562 264.149 11.9824C264.058 12.1086 263.936 12.2752 263.784 12.4871C263.581 12.795 263.328 13.1786 263.018 13.6429C262.425 14.5413 261.787 15.4801 261.113 16.4643C260.697 17.0548 260.297 17.6251 259.916 18.1702C259.369 18.9374 258.832 19.7197 258.294 20.5121C257.666 21.4458 257.037 22.4149 256.404 23.4243C256.105 23.8987 255.806 24.3732 255.497 24.8425C254.964 25.6804 254.402 26.5485 253.824 27.4317C253.383 28.1181 252.917 28.8399 252.415 29.5969C251.213 31.4543 249.992 33.4227 248.745 35.5071C248.01 36.7588 247.305 37.9802 246.641 39.1613C246.226 39.8931 245.82 40.5997 245.43 41.271C245.146 41.7807 244.867 42.2754 244.594 42.7599C243.914 43.9056 243.276 45.0513 242.668 46.1869C242.059 47.3679 241.497 48.5288 240.975 49.6644C240.762 50.1136 240.559 50.5375 240.366 50.9413C239.783 52.1476 239.337 53.0611 239.028 53.6718C238.993 53.7424 238.962 53.8131 238.937 53.8838L238.902 53.9191C238.76 54.2118 238.638 54.444 238.547 54.6005C238.45 54.762 238.364 54.8629 238.278 54.9134C238.182 54.974 238.091 55.0042 237.994 55.0042C237.888 55.0042 237.781 54.9689 237.675 54.8982C237.462 54.7569 237.269 54.55 237.107 54.2774C237.062 54.1816 237.026 54.0705 237.001 53.9393C236.991 53.8787 236.98 53.8131 236.98 53.7424C236.98 53.6365 236.996 53.48 237.026 53.2832C237.056 53.0813 237.143 52.7633 237.285 52.3242L237.305 52.3192Z" fill="#766A5A"/>
</g>
<path d="M64.193 17.242L61.973 18.463C61.381 17.4023 60.678 16.4773 59.864 15.688C59.05 14.874 58.2607 14.2697 57.496 13.875C56.756 13.4803 55.942 13.1597 55.054 12.913C54.1907 12.6663 53.4877 12.5183 52.945 12.469C52.4023 12.4197 51.8597 12.395 51.317 12.395C47.691 12.395 44.731 13.5667 42.437 15.91C40.3403 18.056 39.292 20.757 39.292 24.013C39.292 27.195 40.3773 29.859 42.548 32.005C44.7927 34.2497 47.728 35.372 51.354 35.372C56.312 35.372 60.0613 33.2137 62.602 28.897L64.859 29.97C63.749 31.9187 62.38 33.4973 60.752 34.706C58.0633 36.6793 54.8813 37.666 51.206 37.666C47.5553 37.666 44.509 36.778 42.067 35.002C40.291 33.6947 38.922 32.0667 37.96 30.118C36.998 28.1693 36.517 26.0727 36.517 23.828C36.517 20.5473 37.5283 17.6983 39.551 15.281C40.4883 14.171 41.5367 13.2337 42.696 12.469C43.88 11.7043 45.0393 11.174 46.174 10.878C47.3333 10.5573 48.283 10.3477 49.023 10.249C49.7877 10.1257 50.5277 10.064 51.243 10.064C55.313 10.064 58.717 11.3097 61.455 13.801C62.3183 14.5657 63.231 15.7127 64.193 17.242ZM112.908 37H91.3004V10.878H93.8904V34.817H112.908V37ZM164.689 37H138.604V10.878H163.616V13.024H141.157V22.2H161.914V24.42H141.157V34.817H164.689V37ZM217.266 37H214.565L211.198 30.229H194.363L191.033 37H188.406L201.282 10.878H204.094L217.266 37ZM210.162 28.157L202.688 13.209L195.362 28.157H210.162Z" fill="#A69174"/>
<path d="M369.121 13.024H347.624V22.311H366.864V24.568H347.624V37H345.071V10.878H369.121V13.024ZM397.888 37H395.409V10.878H397.888V37ZM448.042 13.024H436.831V37H434.352V13.024H422.623V10.878H448.042V13.024Z" fill="#564F47"/>
<path d="M234.984 14.278C234.984 16.434 234.214 18.2747 232.674 19.8C231.149 21.3107 229.301 22.066 227.13 22.066C224.959 22.066 223.119 21.3033 221.608 19.778C220.097 18.2527 219.342 16.39 219.342 14.19C219.342 12.0047 220.097 10.164 221.608 8.668C223.119 7.15733 224.974 6.402 227.174 6.402C228.127 6.402 229.059 6.578 229.968 6.93C230.877 7.282 231.706 7.78067 232.454 8.426C233.217 9.05667 233.825 9.88533 234.28 10.912C234.749 11.924 234.984 13.046 234.984 14.278ZM234.28 14.278C234.28 12.2687 233.591 10.5747 232.212 9.196C230.848 7.80267 229.169 7.106 227.174 7.106C225.179 7.106 223.485 7.80267 222.092 9.196C220.713 10.5747 220.024 12.2613 220.024 14.256C220.024 16.2213 220.713 17.9007 222.092 19.294C223.485 20.6727 225.172 21.362 227.152 21.362C229.117 21.362 230.797 20.6727 232.19 19.294C233.583 17.9007 234.28 16.2287 234.28 14.278ZM223.808 18.766V9.614H227.702C228.655 9.614 229.367 9.73133 229.836 9.966C230.555 10.3327 230.914 11.022 230.914 12.034C230.914 12.8407 230.672 13.4787 230.188 13.948C229.704 14.4173 229.007 14.674 228.098 14.718L230.892 18.766H229.374L226.668 14.74H225.062V18.766H223.808ZM225.062 13.684H227.46C228.252 13.684 228.817 13.5667 229.154 13.332C229.491 13.0827 229.66 12.6647 229.66 12.078C229.66 11.506 229.499 11.132 229.176 10.956C228.853 10.7653 228.413 10.67 227.856 10.67H225.062V13.684Z" fill="white"/>
<path d="M475.5 9.5H472.5L474 20L475.5 9.5Z" fill="#564F47"/>
<path d="M482 9H479L480.5 19.5L482 9Z" fill="#564F47"/>
<path fill-rule="evenodd" clip-rule="evenodd" d="M471.922 9H476.075L474.493 20.0707H473.503L471.922 9ZM473.075 10L473.998 16.4645L474.922 10H473.075Z" fill="#564F47"/>
<path fill-rule="evenodd" clip-rule="evenodd" d="M478 9H482.153L480.571 20.0707H479.582L478 9ZM479.153 10L480.077 16.4645L481 10H479.153Z" fill="#564F47"/>
<path d="M3.57812 9.5H0.578125L2.07812 20L3.57812 9.5Z" fill="#A69174"/>
<path d="M10.0781 9H7.07812L8.57812 19.5L10.0781 9Z" fill="#A69174"/>
<path fill-rule="evenodd" clip-rule="evenodd" d="M0 9H4.15301L2.57148 20.0707H1.58153L0 9ZM1.15301 10L2.0765 16.4645L3 10H1.15301Z" fill="#A69174"/>
<path fill-rule="evenodd" clip-rule="evenodd" d="M6.07812 9H10.2311L8.6496 20.0707H7.65966L6.07812 9ZM7.23113 10L8.15463 16.4645L9.07812 10H7.23113Z" fill="#A69174"/>
<defs>
<clipPath id="clip0_56_1042">
<rect width="52" height="53" fill="white" transform="translate(237 2)"/>
</clipPath>
</defs>
</svg>
