<?xml version="1.0" encoding="UTF-8"?>
<svg id="_Слой_2" data-name="Слой 2" xmlns="http://www.w3.org/2000/svg" viewBox="0 0 440.36 50.8">
  <defs>
    <style>
      .cls-1 {
        fill: #362b26;
      }
    </style>
  </defs>
  <g id="_Слой_1-2" data-name="Слой 1">
    <g>
      <path class="cls-1" d="M0,.49H17.16V18.8H53.99V.49h17.16V50.76h-17.16V30.96H17.16v19.8H0V.49Z"/>
      <path class="cls-1" d="M267.6,24.28v1.98c0,1.41-.09,2.77-.27,4.09-.18,1.32-.57,2.83-1.19,4.52-.62,1.69-1.41,3.25-2.39,4.68-.97,1.43-2.35,2.86-4.14,4.29-1.79,1.43-3.85,2.64-6.2,3.63-2.34,.99-5.27,1.79-8.78,2.41-3.51,.62-7.41,.92-11.69,.92H112.34c-4.28,0-8.19-.31-11.73-.92-3.53-.62-6.47-1.42-8.81-2.41-2.34-.99-4.41-2.2-6.19-3.63-1.79-1.43-3.18-2.86-4.17-4.29-.99-1.43-1.79-2.99-2.39-4.68-.6-1.69-.98-3.2-1.16-4.52-.18-1.32-.27-2.68-.27-4.09v-1.98c0-1.45,.09-2.83,.27-4.12,.18-1.3,.56-2.79,1.16-4.49,.6-1.69,1.39-3.24,2.39-4.65,.99-1.41,2.37-2.82,4.14-4.22,1.77-1.41,3.83-2.6,6.2-3.56,2.36-.97,5.31-1.75,8.85-2.34,3.53-.6,7.44-.89,11.73-.89h120.61c4.29,0,8.17,.3,11.66,.89,3.49,.59,6.42,1.37,8.78,2.34,2.36,.97,4.43,2.15,6.2,3.56,1.77,1.41,3.15,2.81,4.14,4.22,.99,1.41,1.8,2.95,2.42,4.62,.62,1.67,1.02,3.17,1.19,4.49,.18,1.32,.26,2.7,.26,4.16Zm-16.17,.46c0-1.23-.15-2.4-.46-3.5-.31-1.1-.91-2.24-1.79-3.43-.88-1.19-2.03-2.2-3.45-3.04-1.41-.83-3.33-1.53-5.76-2.08-2.2-.5-4.72-.77-7.57-.82-.3,0-118.37,0-118.67,0-13.3,0-19.94,4.29-19.94,12.87v.79c0,1.58,.28,3.08,.83,4.49,.55,1.41,1.49,2.81,2.82,4.22,1.32,1.41,3.38,2.53,6.16,3.36,2.78,.84,6.16,1.25,10.14,1.25,.31,0,118.37,0,118.67,0,3.54-.06,6.58-.46,9.13-1.21,2.76-.81,4.83-1.91,6.19-3.3,1.37-1.39,2.33-2.78,2.88-4.19,.55-1.41,.83-2.9,.83-4.49v-.93Z"/>
      <path class="cls-1" d="M310.59,.26c5.13,0,9.77,.32,13.91,.95,4.14,.63,7.6,1.55,10.36,2.75,2.76,1.2,5.13,2.53,7.1,4.01,1.97,1.47,3.48,3.13,4.51,4.99,1.04,1.86,1.79,3.68,2.26,5.46,.47,1.79,.7,3.7,.7,5.74v2.04c0,2.4-.3,4.65-.89,6.75-.59,2.1-1.76,4.29-3.51,6.55-1.75,2.26-4.01,4.19-6.77,5.77-2.76,1.58-6.51,2.9-11.25,3.94-4.74,1.04-10.19,1.56-16.36,1.56h-36.56V.26h36.48Zm-19.24,38.35h17.91c14.75,0,22.13-4.34,22.13-13.03v-.41c0-8.64-7.38-12.97-22.13-12.97h-17.91v26.41Z"/>
      <path class="cls-1" d="M372.98,50.76h-17.16V.49h17.16V50.76Z"/>
      <path class="cls-1" d="M439.62,.26V11.73h-41v7.47h40.04v11.54h-40.04v8.28h41.74v11.74h-58.76V.26h58.02Z"/>
    </g>
  </g>
</svg>