<?xml version="1.0" encoding="UTF-8"?>
<svg id="_Слой_2" data-name="Слой 2" xmlns="http://www.w3.org/2000/svg" viewBox="0 0 102.59 105.01">
  <defs>
    <style>
      .cls-1 {
        fill: #766a5a;
      }
    </style>
  </defs>
  <g id="_Слой_1-2" data-name="Слой 1">
    <path class="cls-1" d="M.6,99.7c.94-2.91,2.57-6.86,4.89-11.85,2.18-4.59,4.76-9.58,7.73-14.94,3-5.51,6.39-11.45,10.16-17.82,3.89-6.54,7.79-12.74,11.71-18.6,3.73-5.53,7.29-10.51,10.69-14.94,3.66-4.85,6.6-8.67,8.82-11.46,.96-1.22,1.66-2.05,2.11-2.5,.44-.45,.83-.68,1.16-.7,.09-.02,.18-.04,.25-.04,.61,0,1.32,.29,2.14,.88,.47,.35,.95,.74,1.44,1.18s.91,.85,1.27,1.25c.3,.4,.49,.84,.56,1.34v.21c0,.45-.13,1.03-.39,1.76-.73,1.8-1.76,3.97-3.09,6.5l-.28,.56c-.09,.21-.2,.42-.32,.63-1.1,2.23-2.17,4.46-3.2,6.71-.98,2.25-1.98,4.61-2.99,7.07-.14,.35-.28,.71-.42,1.09-1.15,2.81-2.32,5.75-3.52,8.82-1.17,3.14-2.24,6.3-3.2,9.49-.96,3.07-1.71,6-2.25,8.79-.56,2.77-.91,5.57-1.05,8.4-.02,.75-.04,1.49-.04,2.21,0,2.16,.13,4.18,.39,6.08,.37,2.39,.91,4.12,1.62,5.2,.54,1.01,1.42,1.51,2.64,1.51h.35c1.5,0,3.53-.59,6.08-1.76,2.62-1.29,5.45-3.27,8.47-5.94,2.93-2.72,5.8-5.88,8.61-9.49,2.88-3.68,5.46-7.2,7.73-10.55,2.09-3.05,3.93-6.02,5.52-8.93,1.76-3.16,3.45-6.49,5.06-9.98,1.52-3.35,2.92-6.69,4.18-10.02,1.36-3.47,2.52-6.75,3.48-9.84,.87-2.98,1.48-5.53,1.83-7.66,.16-.8,.25-1.61,.25-2.43,0-.75-.1-1.72-.3-2.9-.2-1.18-.79-2.29-1.78-3.32-.91-.94-2.18-1.41-3.8-1.41-.19,0-.38,.01-.56,.04-.73,.09-1.49,.22-2.29,.39-.66,.12-1.22,.21-1.69,.28h-.21c-.35,0-.62-.05-.79-.16s-.26-.26-.26-.47v-.14c0-.45,.33-.91,.98-1.41,.87-.56,1.98-.84,3.34-.84,2.48,.14,4.57,1.05,6.26,2.72s2.92,3.71,3.69,6.1c.66,1.95,.98,3.86,.98,5.73,0,.45-.02,.89-.07,1.34-.4,3.21-1.23,6.64-2.5,10.3-1.17,3.56-2.36,6.87-3.55,9.91-1.2,2.98-2.33,5.62-3.41,7.95-.87,1.8-1.75,3.57-2.64,5.31l-.7,1.41c-1.17,2.34-2.45,4.75-3.83,7.21-1.43,2.44-2.97,4.8-4.61,7.1-1.59,2.32-3.26,4.58-4.99,6.79-1.78,2.23-3.54,4.3-5.27,6.22-1.69,1.9-3.33,3.59-4.92,5.06-1.62,1.5-3.33,2.79-5.13,3.87-1.92,1.1-3.81,1.91-5.66,2.43-1.15,.28-2.25,.42-3.3,.42-.52,0-1.03-.04-1.55-.11-1.62-.26-3.19-.79-4.71-1.58-1.57-.82-2.91-1.81-4.01-2.95-1.08-1.15-1.91-2.43-2.5-3.83-.61-1.38-1.05-3.05-1.34-4.99-.26-1.95-.39-4.06-.39-6.33v-.56c0-2.39,.23-4.9,.7-7.52,.47-2.6,1.3-5.74,2.5-9.42,1.27-4.03,2.71-8.19,4.32-12.48,1.55-4.03,3-7.55,4.36-10.55,1.2-2.67,2.21-4.89,3.06-6.64,.14-.28,.27-.55,.39-.81l.21-.42c.63-1.36,1-2.16,1.09-2.39,.02-.05,.04-.08,.04-.11s-.01-.04-.04-.04-.08,.05-.16,.14c-.08,.09-.21,.26-.39,.51s-.42,.58-.72,1c-.4,.61-.9,1.37-1.51,2.29-1.17,1.78-2.43,3.64-3.76,5.59-.82,1.17-1.61,2.3-2.36,3.38-1.08,1.52-2.14,3.07-3.2,4.64-1.24,1.85-2.48,3.77-3.73,5.77-.59,.94-1.18,1.88-1.79,2.81-1.05,1.66-2.16,3.38-3.3,5.13-.87,1.36-1.79,2.79-2.78,4.29-2.37,3.68-4.78,7.58-7.24,11.71-1.45,2.48-2.84,4.9-4.15,7.24-.82,1.45-1.62,2.85-2.39,4.18-.56,1.01-1.11,1.99-1.65,2.95-1.34,2.27-2.6,4.54-3.8,6.79-1.2,2.34-2.31,4.64-3.34,6.89-.42,.89-.82,1.73-1.2,2.53-1.15,2.39-2.03,4.2-2.64,5.41-.07,.14-.13,.28-.18,.42l-.07,.07c-.28,.58-.52,1.04-.7,1.35-.19,.32-.36,.52-.53,.62-.19,.12-.37,.18-.56,.18-.21,0-.42-.07-.63-.21-.42-.28-.8-.69-1.12-1.23-.09-.19-.16-.41-.21-.67-.02-.12-.04-.25-.04-.39,0-.21,.03-.52,.09-.91,.06-.4,.23-1.03,.51-1.9Z"/>
  </g>
</svg>