<svg width="418" height="39" viewBox="0 0 418 39" fill="none" xmlns="http://www.w3.org/2000/svg">
<g clip-path="url(#clip0_49_1591)">
<path d="M417.5 0.5H0.5V38.5H417.5V0.5Z" fill="#D9D9D9" fill-opacity="0.13" stroke="black"/>
<path d="M69.9321 14.0004H66.4094C66.2011 12.9871 65.8365 12.097 65.3156 11.3299C64.8043 10.5629 64.1793 9.91892 63.4406 9.39809C62.7115 8.86778 61.9018 8.47006 61.0117 8.20491C60.1215 7.93975 59.1935 7.80718 58.2276 7.80718C56.4662 7.80718 54.8706 8.25225 53.4406 9.14241C52.0202 10.0326 50.8886 11.3442 50.0458 13.0771C49.2124 14.8101 48.7958 16.936 48.7958 19.4549C48.7958 21.9739 49.2124 24.0998 50.0458 25.8328C50.8886 27.5657 52.0202 28.8773 53.4406 29.7674C54.8706 30.6576 56.4662 31.1027 58.2276 31.1027C59.1935 31.1027 60.1215 30.9701 61.0117 30.7049C61.9018 30.4398 62.7115 30.0468 63.4406 29.526C64.1793 28.9957 64.8043 28.347 65.3156 27.5799C65.8365 26.8034 66.2011 25.9133 66.4094 24.9095H69.9321C69.667 26.3962 69.184 27.7267 68.4833 28.901C67.7825 30.0752 66.9113 31.0743 65.8696 31.8981C64.828 32.7125 63.6584 33.3328 62.3611 33.7589C61.0732 34.1851 59.6954 34.3981 58.2276 34.3981C55.7465 34.3981 53.5401 33.7921 51.6083 32.5799C49.6764 31.3678 48.1566 29.6443 47.0486 27.4095C45.9406 25.1746 45.3867 22.5231 45.3867 19.4549C45.3867 16.3868 45.9406 13.7352 47.0486 11.5004C48.1566 9.26551 49.6764 7.54203 51.6083 6.32991C53.5401 5.11778 55.7465 4.51172 58.2276 4.51172C59.6954 4.51172 61.0732 4.72479 62.3611 5.15093C63.6584 5.57706 64.828 6.20206 65.8696 7.02593C66.9113 7.84032 67.7825 8.83464 68.4833 10.0089C69.184 11.1737 69.667 12.5042 69.9321 14.0004ZM86.8746 34.0004V4.90945H90.3973V30.8754H103.92V34.0004H86.8746ZM120.624 34.0004V4.90945H138.181V8.03445H124.147V17.864H137.272V20.989H124.147V30.8754H138.408V34.0004H120.624ZM156.974 34.0004H153.281L163.962 4.90945H167.599L178.281 34.0004H174.587L165.894 9.51172H165.667L156.974 34.0004ZM158.337 22.6368H173.224V25.7618H158.337V22.6368ZM239.63 4.90945V34.0004H236.221L220.369 11.1595H220.085V34.0004H216.562V4.90945H219.971L235.88 27.8072H236.164V4.90945H239.63ZM302.929 34.0004V4.90945H320.372V8.03445H306.452V17.864H319.065V20.989H306.452V34.0004H302.929ZM341.178 4.90945V34.0004H337.656V4.90945H341.178ZM369.151 8.03445V4.90945H390.969V8.03445H381.821V34.0004H378.298V8.03445H369.151Z" fill="#A69174"/>
</g>
<defs>
<clipPath id="clip0_49_1591">
<rect width="418" height="39" fill="white"/>
</clipPath>
</defs>
</svg>
