<svg width="483" height="55" viewBox="0 0 483 55" fill="none" xmlns="http://www.w3.org/2000/svg">
<g clip-path="url(#clip0_56_1042)">
<path d="M237.304 52.3201C237.78 50.8514 238.607 48.8578 239.782 46.3393C240.887 44.0226 242.195 41.5041 243.701 38.7989C245.221 36.0179 246.94 33.0199 248.85 29.8048C250.822 26.504 252.799 23.3748 254.786 20.4172C256.677 17.6261 258.481 15.1126 260.204 12.8767C262.06 10.4289 263.55 8.50088 264.675 7.09273C265.162 6.47698 265.516 6.05806 265.744 5.83094C265.968 5.60382 266.165 5.48774 266.332 5.47764C266.378 5.46755 266.424 5.45745 266.459 5.45745C266.768 5.45745 267.128 5.60382 267.544 5.9016C267.782 6.07825 268.025 6.27509 268.274 6.49716C268.522 6.71924 268.735 6.92617 268.918 7.12806C269.07 7.32994 269.166 7.55202 269.201 7.80437V7.91036C269.201 8.13748 269.135 8.43022 269.004 8.79866C268.634 9.70714 268.112 10.8024 267.437 12.0793L267.296 12.3619C267.25 12.4679 267.194 12.5739 267.133 12.6799C266.576 13.8054 266.033 14.9309 265.511 16.0665C265.015 17.2021 264.508 18.3933 263.996 19.6349C263.925 19.8115 263.854 19.9932 263.783 20.185C263.2 21.6032 262.607 23.0871 261.999 24.6366C261.406 26.2214 260.863 27.8163 260.377 29.4263C259.89 30.9758 259.51 32.4546 259.236 33.8627C258.952 35.2608 258.775 36.674 258.704 38.1023C258.694 38.4809 258.684 38.8544 258.684 39.2178C258.684 40.3079 258.75 41.3275 258.881 42.2864C259.069 43.4927 259.343 44.3658 259.703 44.9109C259.976 45.4207 260.422 45.6731 261.041 45.6731H261.218C261.978 45.6731 263.007 45.3753 264.3 44.7848C265.628 44.1337 267.062 43.1343 268.593 41.7868C270.078 40.4139 271.533 38.819 272.957 36.997C274.417 35.1397 275.725 33.3631 276.875 31.6723C277.935 30.1329 278.867 28.6339 279.673 27.1652C280.565 25.5703 281.422 23.8896 282.238 22.1282C283.009 20.4374 283.718 18.7516 284.357 17.0709C285.046 15.3196 285.634 13.6641 286.121 12.1045C286.562 10.6005 286.871 9.31347 287.048 8.23843C287.129 7.83466 287.175 7.42584 287.175 7.01197C287.175 6.63344 287.124 6.14387 287.023 5.5483C286.922 4.95274 286.623 4.39251 286.121 3.87265C285.659 3.39822 285.016 3.16101 284.195 3.16101C284.098 3.16101 284.002 3.16605 283.911 3.18119C283.541 3.22662 283.156 3.29223 282.75 3.37803C282.416 3.4386 282.132 3.48402 281.893 3.51935H281.787C281.61 3.51935 281.473 3.49412 281.387 3.4386C281.3 3.38308 281.255 3.30737 281.255 3.20138V3.13072C281.255 2.9036 281.422 2.67143 281.752 2.41908C282.192 2.13644 282.755 1.99512 283.444 1.99512C284.701 2.06578 285.761 2.52507 286.617 3.36794C287.474 4.21081 288.098 5.24043 288.488 6.44669C288.822 7.43089 288.985 8.39489 288.985 9.3387C288.985 9.56582 288.974 9.7879 288.949 10.015C288.746 11.6352 288.326 13.3663 287.682 15.2136C287.089 17.0104 286.486 18.681 285.883 20.2153C285.274 21.7193 284.701 23.0518 284.154 24.2278C283.713 25.1362 283.267 26.0296 282.816 26.9078L282.461 27.6194C281.868 28.8005 281.219 30.0168 280.52 31.2584C279.795 32.4899 279.014 33.6811 278.183 34.8419C277.377 36.0128 276.531 37.1535 275.654 38.2689C274.752 39.3944 273.86 40.4392 272.983 41.4082C272.126 42.3672 271.295 43.2201 270.489 43.9621C269.668 44.7191 268.801 45.3702 267.889 45.9153C266.915 46.4705 265.957 46.8793 265.02 47.1418C264.437 47.2831 263.879 47.3538 263.347 47.3538C263.083 47.3538 262.825 47.3336 262.561 47.2982C261.74 47.167 260.944 46.8995 260.174 46.5008C259.378 46.0869 258.699 45.5873 258.141 45.0119C257.594 44.4315 257.173 43.7854 256.874 43.0788C256.565 42.3823 256.342 41.5394 256.195 40.5603C256.063 39.5761 255.997 38.5112 255.997 37.3655V37.0828C255.997 35.8766 256.114 34.6097 256.352 33.2874C256.59 31.9751 257.011 30.3903 257.619 28.533C258.263 26.499 258.993 24.3994 259.809 22.2341C260.595 20.2001 261.33 18.4236 262.019 16.9094C262.627 15.5618 263.139 14.4414 263.57 13.5581C263.641 13.4168 263.707 13.2805 263.768 13.1493L263.874 12.9373C264.193 12.2509 264.381 11.8471 264.427 11.731C264.437 11.7058 264.447 11.6907 264.447 11.6755C264.447 11.6604 264.442 11.6553 264.427 11.6553C264.411 11.6553 264.386 11.6806 264.346 11.726C264.305 11.7714 264.239 11.8572 264.148 11.9834C264.057 12.1096 263.935 12.2761 263.783 12.4881C263.58 12.796 263.327 13.1796 263.018 13.6439C262.424 14.5423 261.786 15.4811 261.112 16.4653C260.696 17.0558 260.296 17.6261 259.915 18.1712C259.368 18.9384 258.831 19.7207 258.293 20.5131C257.665 21.4468 257.036 22.4158 256.403 23.4253C256.104 23.8997 255.805 24.3741 255.496 24.8435C254.963 25.6813 254.401 26.5494 253.823 27.4327C253.382 28.1191 252.916 28.8408 252.414 29.5979C251.212 31.4553 249.991 33.4236 248.744 35.5081C248.009 36.7598 247.304 37.9812 246.64 39.1622C246.225 39.8941 245.819 40.6007 245.429 41.2719C245.145 41.7817 244.866 42.2763 244.593 42.7609C243.914 43.9066 243.275 45.0523 242.667 46.1879C242.058 47.3689 241.496 48.5297 240.974 49.6653C240.761 50.1145 240.558 50.5385 240.365 50.9423C239.782 52.1485 239.336 53.0621 239.027 53.6728C238.992 53.7434 238.961 53.8141 238.936 53.8848L238.901 53.9201C238.759 54.2128 238.637 54.445 238.546 54.6014C238.449 54.763 238.363 54.8639 238.277 54.9144C238.181 54.9749 238.09 55.0052 237.993 55.0052C237.887 55.0052 237.78 54.9699 237.674 54.8992C237.461 54.7579 237.268 54.551 237.106 54.2784C237.061 54.1825 237.025 54.0715 237 53.9403C236.99 53.8797 236.979 53.8141 236.979 53.7434C236.979 53.6374 236.995 53.481 237.025 53.2841C237.056 53.0823 237.142 52.7643 237.284 52.3252L237.304 52.3201Z" fill="#766A5A"/>
</g>
<path d="M63.897 29.045L67.819 29.859C66.191 32.967 63.9587 35.0637 61.122 36.149C58.31 37.2343 55.4857 37.74 52.649 37.666C48.1103 37.666 44.361 36.5067 41.401 34.188C38.441 31.894 36.9117 28.416 36.813 23.754C36.8623 19.6347 38.256 16.3417 40.994 13.875C43.732 11.4083 47.5923 10.1503 52.575 10.101C55.7077 10.0763 58.5567 10.656 61.122 11.84C63.6873 13.024 65.7347 14.9727 67.264 17.686L63.305 18.537C62.2443 16.6623 60.752 15.318 58.828 14.504C56.9287 13.7147 54.8937 13.3323 52.723 13.357C49.689 13.3077 46.9757 14.06 44.583 15.614C42.1657 17.168 40.883 19.869 40.735 23.717C40.809 27.3677 42.0053 30.0687 44.324 31.82C46.6427 33.5467 49.5903 34.41 53.167 34.41C55.0417 34.4593 56.978 34.1263 58.976 33.411C60.9987 32.671 62.639 31.2157 63.897 29.045ZM114.957 37H93.9037V10.878H97.6037V33.818H114.957V37ZM164.703 37H139.654V10.878H163.741V14.097H143.354V21.867H163.223V24.975H143.354V33.781H164.703V37ZM218.5 37H214.208L211.026 30.562H194.968L191.786 37H187.605L201.147 10.878H205.106L218.5 37ZM209.435 27.565L203.034 14.615L196.522 27.565H209.435Z" fill="#A69174"/>
<path d="M368.381 14.097H348.808V22.459H367.641V25.53H348.808V37H345.145V10.878H368.381V14.097ZM398.462 37H394.688V10.878H398.462V37ZM449.022 13.986H438.329V37H434.629V13.986H423.973V10.878H449.022V13.986Z" fill="#564F47"/>
<path d="M234.984 14.278C234.984 16.434 234.214 18.2747 232.674 19.8C231.149 21.3107 229.301 22.066 227.13 22.066C224.959 22.066 223.119 21.3033 221.608 19.778C220.097 18.2527 219.342 16.39 219.342 14.19C219.342 12.0047 220.097 10.164 221.608 8.668C223.119 7.15733 224.974 6.402 227.174 6.402C228.127 6.402 229.059 6.578 229.968 6.93C230.877 7.282 231.706 7.78067 232.454 8.426C233.217 9.05667 233.825 9.88533 234.28 10.912C234.749 11.924 234.984 13.046 234.984 14.278ZM234.28 14.278C234.28 12.2687 233.591 10.5747 232.212 9.196C230.848 7.80267 229.169 7.106 227.174 7.106C225.179 7.106 223.485 7.80267 222.092 9.196C220.713 10.5747 220.024 12.2613 220.024 14.256C220.024 16.2213 220.713 17.9007 222.092 19.294C223.485 20.6727 225.172 21.362 227.152 21.362C229.117 21.362 230.797 20.6727 232.19 19.294C233.583 17.9007 234.28 16.2287 234.28 14.278ZM223.808 18.766V9.614H227.702C228.655 9.614 229.367 9.73133 229.836 9.966C230.555 10.3327 230.914 11.022 230.914 12.034C230.914 12.8407 230.672 13.4787 230.188 13.948C229.704 14.4173 229.007 14.674 228.098 14.718L230.892 18.766H229.374L226.668 14.74H225.062V18.766H223.808ZM225.062 13.684H227.46C228.252 13.684 228.817 13.5667 229.154 13.332C229.491 13.0827 229.66 12.6647 229.66 12.078C229.66 11.506 229.499 11.132 229.176 10.956C228.853 10.7653 228.413 10.67 227.856 10.67H225.062V13.684Z" fill="white"/>
<path d="M475.5 9.5H472.5L474 20L475.5 9.5Z" fill="#564F47"/>
<path d="M482 9H479L480.5 19.5L482 9Z" fill="#564F47"/>
<path fill-rule="evenodd" clip-rule="evenodd" d="M471.922 9H476.075L474.493 20.0707H473.503L471.922 9ZM473.075 10L473.998 16.4645L474.922 10H473.075Z" fill="#564F47"/>
<path fill-rule="evenodd" clip-rule="evenodd" d="M478 9H482.153L480.571 20.0707H479.582L478 9ZM479.153 10L480.077 16.4645L481 10H479.153Z" fill="#564F47"/>
<path d="M3.57812 9.5H0.578125L2.07812 20L3.57812 9.5Z" fill="#A69174"/>
<path d="M10.0781 9H7.07812L8.57812 19.5L10.0781 9Z" fill="#A69174"/>
<path fill-rule="evenodd" clip-rule="evenodd" d="M0 9H4.15301L2.57148 20.0707H1.58153L0 9ZM1.15301 10L2.0765 16.4645L3 10H1.15301Z" fill="#A69174"/>
<path fill-rule="evenodd" clip-rule="evenodd" d="M6.07812 9H10.2311L8.6496 20.0707H7.65966L6.07812 9ZM7.23113 10L8.15463 16.4645L9.07812 10H7.23113Z" fill="#A69174"/>
<defs>
<clipPath id="clip0_56_1042">
<rect width="52" height="53" fill="white" transform="translate(237 2)"/>
</clipPath>
</defs>
</svg>
