<svg width="199" height="15" viewBox="0 0 199 15" fill="none" xmlns="http://www.w3.org/2000/svg">
<g clip-path="url(#clip0_49_1571)">
<path d="M0.5 0.5H198.5V13.5H0.5V0.5Z" fill="#D9D9D9" fill-opacity="0.13" stroke="black"/>
<path d="M26.7919 4.49929H25.1186C25.0197 4.01799 24.8465 3.59517 24.5991 3.23082C24.3562 2.86648 24.0593 2.56061 23.7085 2.31321C23.3621 2.06132 22.9775 1.8724 22.5547 1.74645C22.1319 1.6205 21.6911 1.55753 21.2323 1.55753C20.3956 1.55753 19.6377 1.76894 18.9585 2.19176C18.2837 2.61458 17.7462 3.23757 17.3459 4.06072C16.9501 4.88388 16.7521 5.8937 16.7521 7.0902C16.7521 8.28669 16.9501 9.29652 17.3459 10.1197C17.7462 10.9428 18.2837 11.5658 18.9585 11.9886C19.6377 12.4115 20.3956 12.6229 21.2323 12.6229C21.6911 12.6229 22.1319 12.5599 22.5547 12.434C22.9775 12.308 23.3621 12.1213 23.7085 11.8739C24.0593 11.6221 24.3562 11.3139 24.5991 10.9496C24.8465 10.5807 25.0197 10.1579 25.1186 9.68111H26.7919C26.666 10.3873 26.4366 11.0193 26.1037 11.5771C25.7708 12.1348 25.357 12.6094 24.8622 13.0007C24.3674 13.3876 23.8119 13.6822 23.1957 13.8846C22.5839 14.087 21.9295 14.1882 21.2323 14.1882C20.0538 14.1882 19.0057 13.9003 18.0881 13.3246C17.1705 12.7488 16.4485 11.9302 15.9222 10.8686C15.396 9.80706 15.1328 8.54759 15.1328 7.0902C15.1328 5.63281 15.396 4.37334 15.9222 3.31179C16.4485 2.25024 17.1705 1.43158 18.0881 0.855824C19.0057 0.280066 20.0538 -0.0078125 21.2323 -0.0078125C21.9295 -0.0078125 22.5839 0.093395 23.1957 0.29581C23.8119 0.498224 24.3674 0.795099 24.8622 1.18643C25.357 1.57327 25.7708 2.04557 26.1037 2.60334C26.4366 3.1566 26.666 3.78859 26.7919 4.49929ZM41.1549 7.0902C41.1549 8.54759 40.8918 9.80706 40.3655 10.8686C39.8392 11.9302 39.1173 12.7488 38.1997 13.3246C37.2821 13.9003 36.234 14.1882 35.0555 14.1882C33.877 14.1882 32.8289 13.9003 31.9113 13.3246C30.9937 12.7488 30.2718 11.9302 29.7455 10.8686C29.2192 9.80706 28.9561 8.54759 28.9561 7.0902C28.9561 5.63281 29.2192 4.37334 29.7455 3.31179C30.2718 2.25024 30.9937 1.43158 31.9113 0.855824C32.8289 0.280066 33.877 -0.0078125 35.0555 -0.0078125C36.234 -0.0078125 37.2821 0.280066 38.1997 0.855824C39.1173 1.43158 39.8392 2.25024 40.3655 3.31179C40.8918 4.37334 41.1549 5.63281 41.1549 7.0902ZM39.5356 7.0902C39.5356 5.8937 39.3354 4.88388 38.9351 4.06072C38.5393 3.23757 38.0018 2.61458 37.3225 2.19176C36.6478 1.76894 35.8921 1.55753 35.0555 1.55753C34.2188 1.55753 33.4609 1.76894 32.7817 2.19176C32.107 2.61458 31.5695 3.23757 31.1691 4.06072C30.7733 4.88388 30.5754 5.8937 30.5754 7.0902C30.5754 8.28669 30.7733 9.29652 31.1691 10.1197C31.5695 10.9428 32.107 11.5658 32.7817 11.9886C33.4609 12.4115 34.2188 12.6229 35.0555 12.6229C35.8921 12.6229 36.6478 12.4115 37.3225 11.9886C38.0018 11.5658 38.5393 10.9428 38.9351 10.1197C39.3354 9.29652 39.5356 8.28669 39.5356 7.0902ZM43.9685 13.9993V0.181108H45.6418V12.5149H52.0651V13.9993H43.9685ZM54.656 13.9993V0.181108H56.3293V12.5149H62.7526V13.9993H54.656ZM65.3435 13.9993V0.181108H73.683V1.66548H67.0168V6.33452H73.2512V7.81889H67.0168V12.5149H73.7909V13.9993H65.3435ZM87.8183 4.49929H86.145C86.046 4.01799 85.8729 3.59517 85.6255 3.23082C85.3826 2.86648 85.0857 2.56061 84.7348 2.31321C84.3885 2.06132 84.0039 1.8724 83.5811 1.74645C83.1582 1.6205 82.7174 1.55753 82.2586 1.55753C81.422 1.55753 80.664 1.76894 79.9848 2.19176C79.3101 2.61458 78.7726 3.23757 78.3723 4.06072C77.9764 4.88388 77.7785 5.8937 77.7785 7.0902C77.7785 8.28669 77.9764 9.29652 78.3723 10.1197C78.7726 10.9428 79.3101 11.5658 79.9848 11.9886C80.664 12.4115 81.422 12.6229 82.2586 12.6229C82.7174 12.6229 83.1582 12.5599 83.5811 12.434C84.0039 12.308 84.3885 12.1213 84.7348 11.8739C85.0857 11.6221 85.3826 11.3139 85.6255 10.9496C85.8729 10.5807 86.046 10.1579 86.145 9.68111H87.8183C87.6923 10.3873 87.4629 11.0193 87.1301 11.5771C86.7972 12.1348 86.3834 12.6094 85.8886 13.0007C85.3938 13.3876 84.8383 13.6822 84.222 13.8846C83.6103 14.087 82.9558 14.1882 82.2586 14.1882C81.0801 14.1882 80.0321 13.9003 79.1144 13.3246C78.1968 12.7488 77.4749 11.9302 76.9486 10.8686C76.4223 9.80706 76.1592 8.54759 76.1592 7.0902C76.1592 5.63281 76.4223 4.37334 76.9486 3.31179C77.4749 2.25024 78.1968 1.43158 79.1144 0.855824C80.0321 0.280066 81.0801 -0.0078125 82.2586 -0.0078125C82.9558 -0.0078125 83.6103 0.093395 84.222 0.29581C84.8383 0.498224 85.3938 0.795099 85.8886 1.18643C86.3834 1.57327 86.7972 2.04557 87.1301 2.60334C87.4629 3.1566 87.6923 3.78859 87.8183 4.49929ZM89.7665 1.66548V0.181108H100.13V1.66548H95.785V13.9993H94.1117V1.66548H89.7665ZM104.386 0.181108V13.9993H102.712V0.181108H104.386ZM119.4 7.0902C119.4 8.54759 119.137 9.80706 118.61 10.8686C118.084 11.9302 117.362 12.7488 116.444 13.3246C115.527 13.9003 114.479 14.1882 113.3 14.1882C112.122 14.1882 111.074 13.9003 110.156 13.3246C109.239 12.7488 108.517 11.9302 107.99 10.8686C107.464 9.80706 107.201 8.54759 107.201 7.0902C107.201 5.63281 107.464 4.37334 107.99 3.31179C108.517 2.25024 109.239 1.43158 110.156 0.855824C111.074 0.280066 112.122 -0.0078125 113.3 -0.0078125C114.479 -0.0078125 115.527 0.280066 116.444 0.855824C117.362 1.43158 118.084 2.25024 118.61 3.31179C119.137 4.37334 119.4 5.63281 119.4 7.0902ZM117.78 7.0902C117.78 5.8937 117.58 4.88388 117.18 4.06072C116.784 3.23757 116.247 2.61458 115.567 2.19176C114.893 1.76894 114.137 1.55753 113.3 1.55753C112.464 1.55753 111.706 1.76894 111.027 2.19176C110.352 2.61458 109.814 3.23757 109.414 4.06072C109.018 4.88388 108.82 5.8937 108.82 7.0902C108.82 8.28669 109.018 9.29652 109.414 10.1197C109.814 10.9428 110.352 11.5658 111.027 11.9886C111.706 12.4115 112.464 12.6229 113.3 12.6229C114.137 12.6229 114.893 12.4115 115.567 11.9886C116.247 11.5658 116.784 10.9428 117.18 10.1197C117.58 9.29652 117.78 8.28669 117.78 7.0902ZM133.171 0.181108V13.9993H131.551L124.022 3.14986H123.887V13.9993H122.213V0.181108H123.833L131.389 11.0575H131.524V0.181108H133.171ZM146.964 13.9993V12.7848L151.525 7.7919C152.06 7.20715 152.501 6.69886 152.847 6.26705C153.193 5.83073 153.45 5.4214 153.616 5.03906C153.787 4.65223 153.873 4.2474 153.873 3.82457C153.873 3.33878 153.756 2.91821 153.522 2.56286C153.292 2.2075 152.978 1.93312 152.577 1.7397C152.177 1.54628 151.727 1.44957 151.228 1.44957C150.697 1.44957 150.234 1.55978 149.838 1.78018C149.447 1.99609 149.143 2.29972 148.927 2.69105C148.716 3.08239 148.61 3.54119 148.61 4.06747H147.018C147.018 3.25781 147.204 2.54711 147.578 1.93537C147.951 1.32363 148.459 0.846827 149.102 0.504971C149.75 0.163115 150.477 -0.0078125 151.282 -0.0078125C152.091 -0.0078125 152.809 0.163115 153.434 0.504971C154.059 0.846827 154.55 1.30788 154.905 1.88814C155.26 2.4684 155.438 3.11387 155.438 3.82457C155.438 4.33286 155.346 4.8299 155.161 5.3157C154.981 5.79699 154.667 6.33452 154.217 6.92827C153.771 7.51752 153.153 8.23722 152.361 9.08736L149.258 12.407V12.5149H155.681V13.9993H146.964ZM162.975 14.1882C161.958 14.1882 161.092 13.9116 160.377 13.3583C159.662 12.8006 159.115 11.9931 158.737 10.9361C158.36 9.87453 158.171 8.59257 158.171 7.0902C158.171 5.59683 158.36 4.32161 158.737 3.26456C159.12 2.20301 159.668 1.39335 160.384 0.835582C161.103 0.273319 161.967 -0.0078125 162.975 -0.0078125C163.982 -0.0078125 164.844 0.273319 165.559 0.835582C166.278 1.39335 166.827 2.20301 167.205 3.26456C167.587 4.32161 167.779 5.59683 167.779 7.0902C167.779 8.59257 167.59 9.87453 167.212 10.9361C166.834 11.9931 166.287 12.8006 165.572 13.3583C164.857 13.9116 163.991 14.1882 162.975 14.1882ZM162.975 12.7038C163.982 12.7038 164.765 12.218 165.323 11.2465C165.88 10.2749 166.159 8.88944 166.159 7.0902C166.159 5.8937 166.031 4.87488 165.775 4.03374C165.523 3.19259 165.158 2.55161 164.682 2.1108C164.209 1.66998 163.64 1.44957 162.975 1.44957C161.976 1.44957 161.196 1.94212 160.633 2.9272C160.071 3.90779 159.79 5.29545 159.79 7.0902C159.79 8.28669 159.916 9.30327 160.168 10.1399C160.42 10.9766 160.782 11.6131 161.254 12.0494C161.731 12.4857 162.304 12.7038 162.975 12.7038ZM170.342 13.9993V12.7848L174.904 7.7919C175.439 7.20715 175.88 6.69886 176.226 6.26705C176.572 5.83073 176.829 5.4214 176.995 5.03906C177.166 4.65223 177.252 4.2474 177.252 3.82457C177.252 3.33878 177.135 2.91821 176.901 2.56286C176.671 2.2075 176.356 1.93312 175.956 1.7397C175.556 1.54628 175.106 1.44957 174.607 1.44957C174.076 1.44957 173.613 1.55978 173.217 1.78018C172.825 1.99609 172.522 2.29972 172.306 2.69105C172.094 3.08239 171.989 3.54119 171.989 4.06747H170.396C170.396 3.25781 170.583 2.54711 170.956 1.93537C171.33 1.32363 171.838 0.846827 172.481 0.504971C173.129 0.163115 173.856 -0.0078125 174.661 -0.0078125C175.47 -0.0078125 176.188 0.163115 176.813 0.504971C177.438 0.846827 177.929 1.30788 178.284 1.88814C178.639 2.4684 178.817 3.11387 178.817 3.82457C178.817 4.33286 178.725 4.8299 178.54 5.3157C178.36 5.79699 178.045 6.33452 177.596 6.92827C177.15 7.51752 176.532 8.23722 175.74 9.08736L172.637 12.407V12.5149H179.06V13.9993H170.342ZM186.165 14.1882C185.373 14.1882 184.66 14.0308 184.026 13.7159C183.391 13.4011 182.883 12.9692 182.501 12.4205C182.119 11.8717 181.909 11.2465 181.873 10.5448H183.493C183.556 11.17 183.839 11.6873 184.343 12.0966C184.851 12.5014 185.458 12.7038 186.165 12.7038C186.731 12.7038 187.235 12.5712 187.676 12.3058C188.121 12.0404 188.47 11.676 188.722 11.2127C188.978 10.7449 189.106 10.2164 189.106 9.62713C189.106 9.02438 188.974 8.48686 188.708 8.01456C188.447 7.53776 188.088 7.16217 187.629 6.88778C187.17 6.6134 186.646 6.47396 186.057 6.46946C185.634 6.46496 185.2 6.53018 184.754 6.66513C184.309 6.79557 183.943 6.96425 183.655 7.17117L182.089 6.98224L182.926 0.181108H190.105V1.66548H184.329L183.844 5.74077H183.925C184.208 5.51586 184.563 5.32919 184.991 5.18075C185.418 5.03232 185.863 4.9581 186.327 4.9581C187.172 4.9581 187.926 5.16051 188.587 5.56534C189.253 5.96567 189.774 6.51444 190.152 7.21165C190.534 7.90885 190.726 8.70502 190.726 9.60014C190.726 10.4818 190.528 11.2689 190.132 11.9617C189.741 12.6499 189.201 13.1941 188.513 13.5945C187.824 13.9903 187.042 14.1882 186.165 14.1882Z" fill="white"/>
</g>
<defs>
<clipPath id="clip0_49_1571">
<rect width="199" height="15" fill="white"/>
</clipPath>
</defs>
</svg>
