<svg width="79" height="15" viewBox="0 0 79 15" fill="none" xmlns="http://www.w3.org/2000/svg">
<g clip-path="url(#clip0_49_1583)">
<path d="M78.5 0.5H0.5V13.5H78.5V0.5Z" fill="#D9D9D9" fill-opacity="0.13" stroke="black"/>
<path d="M5.67188 13.9993V0.181108H7.34517V6.33452H14.7131V0.181108H16.3864V13.9993H14.7131V7.81889H7.34517V13.9993H5.67188ZM31.3954 7.0902C31.3954 8.54759 31.1323 9.80706 30.606 10.8686C30.0797 11.9302 29.3578 12.7488 28.4402 13.3246C27.5226 13.9003 26.4745 14.1882 25.296 14.1882C24.1175 14.1882 23.0694 13.9003 22.1518 13.3246C21.2342 12.7488 20.5123 11.9302 19.986 10.8686C19.4597 9.80706 19.1966 8.54759 19.1966 7.0902C19.1966 5.63281 19.4597 4.37334 19.986 3.31179C20.5123 2.25024 21.2342 1.43158 22.1518 0.855824C23.0694 0.280066 24.1175 -0.0078125 25.296 -0.0078125C26.4745 -0.0078125 27.5226 0.280066 28.4402 0.855824C29.3578 1.43158 30.0797 2.25024 30.606 3.31179C31.1323 4.37334 31.3954 5.63281 31.3954 7.0902ZM29.7761 7.0902C29.7761 5.8937 29.576 4.88388 29.1756 4.06072C28.7798 3.23757 28.2423 2.61458 27.5631 2.19176C26.8883 1.76894 26.1327 1.55753 25.296 1.55753C24.4594 1.55753 23.7014 1.76894 23.0222 2.19176C22.3475 2.61458 21.81 3.23757 21.4096 4.06072C21.0138 4.88388 20.8159 5.8937 20.8159 7.0902C20.8159 8.28669 21.0138 9.29652 21.4096 10.1197C21.81 10.9428 22.3475 11.5658 23.0222 11.9886C23.7014 12.4115 24.4594 12.6229 25.296 12.6229C26.1327 12.6229 26.8883 12.4115 27.5631 11.9886C28.2423 11.5658 28.7798 10.9428 29.1756 10.1197C29.576 9.29652 29.7761 8.28669 29.7761 7.0902ZM45.8681 7.0902C45.8681 8.54759 45.605 9.80706 45.0787 10.8686C44.5524 11.9302 43.8305 12.7488 42.9128 13.3246C41.9952 13.9003 40.9472 14.1882 39.7687 14.1882C38.5902 14.1882 37.5421 13.9003 36.6245 13.3246C35.7069 12.7488 34.9849 11.9302 34.4586 10.8686C33.9324 9.80706 33.6692 8.54759 33.6692 7.0902C33.6692 5.63281 33.9324 4.37334 34.4586 3.31179C34.9849 2.25024 35.7069 1.43158 36.6245 0.855824C37.5421 0.280066 38.5902 -0.0078125 39.7687 -0.0078125C40.9472 -0.0078125 41.9952 0.280066 42.9128 0.855824C43.8305 1.43158 44.5524 2.25024 45.0787 3.31179C45.605 4.37334 45.8681 5.63281 45.8681 7.0902ZM44.2488 7.0902C44.2488 5.8937 44.0486 4.88388 43.6483 4.06072C43.2524 3.23757 42.7149 2.61458 42.0357 2.19176C41.361 1.76894 40.6053 1.55753 39.7687 1.55753C38.932 1.55753 38.1741 1.76894 37.4949 2.19176C36.8202 2.61458 36.2826 3.23757 35.8823 4.06072C35.4865 4.88388 35.2886 5.8937 35.2886 7.0902C35.2886 8.28669 35.4865 9.29652 35.8823 10.1197C36.2826 10.9428 36.8202 11.5658 37.4949 11.9886C38.1741 12.4115 38.932 12.6229 39.7687 12.6229C40.6053 12.6229 41.361 12.4115 42.0357 11.9886C42.7149 11.5658 43.2524 10.9428 43.6483 10.1197C44.0486 9.29652 44.2488 8.28669 44.2488 7.0902ZM52.9459 13.9993H48.6817V0.181108H53.1348C54.4752 0.181108 55.6222 0.457741 56.5758 1.01101C57.5294 1.55978 58.2604 2.34919 58.7687 3.37926C59.277 4.40483 59.5311 5.63281 59.5311 7.06321C59.5311 8.5026 59.2747 9.74183 58.7619 10.7809C58.2491 11.8155 57.5024 12.6116 56.5219 13.1694C55.5413 13.7227 54.3493 13.9993 52.9459 13.9993ZM50.355 12.5149H52.8379C53.9804 12.5149 54.9273 12.2945 55.6785 11.8537C56.4296 11.4129 56.9897 10.7854 57.3585 9.97124C57.7274 9.15708 57.9118 8.18774 57.9118 7.06321C57.9118 5.94768 57.7296 4.98733 57.3653 4.18217C57.0009 3.37251 56.4566 2.75178 55.7324 2.31996C55.0082 1.88364 54.1064 1.66548 53.0268 1.66548H50.355V12.5149ZM64.0112 0.181108V13.9993H62.3379V0.181108H64.0112ZM67.3662 13.9993V0.181108H75.7057V1.66548H69.0395V6.33452H75.2739V7.81889H69.0395V12.5149H75.8137V13.9993H67.3662Z" fill="#A69174"/>
</g>
<defs>
<clipPath id="clip0_49_1583">
<rect width="79" height="15" fill="white"/>
</clipPath>
</defs>
</svg>
