<svg width="1398" height="163" viewBox="0 0 1398 163" fill="none" xmlns="http://www.w3.org/2000/svg">
<g clip-path="url(#clip0_49_1615)">
<mask id="mask0_49_1615" style="mask-type:luminance" maskUnits="userSpaceOnUse" x="0" y="0" width="1398" height="163">
<path d="M1398 0H0V163H1398V0Z" fill="white"/>
</mask>
<g mask="url(#mask0_49_1615)">
<path d="M2.10938 159.999V2.18111H21.2202V72.4595H105.37V2.18111H124.481V159.999H105.37V89.4127H21.2202V159.999H2.10938ZM415.25 81.0902C415.25 97.7351 412.244 112.119 406.234 124.243C400.223 136.367 391.978 145.717 381.498 152.293C371.018 158.869 359.048 162.157 345.588 162.157C332.128 162.157 320.158 158.869 309.678 152.293C299.198 145.717 290.953 136.367 284.942 124.243C278.931 112.119 275.926 97.7351 275.926 81.0902C275.926 64.4453 278.931 50.0609 284.942 37.9368C290.953 25.8127 299.198 16.4628 309.678 9.88708C320.158 3.31132 332.128 0.0234375 345.588 0.0234375C359.048 0.0234375 371.018 3.31132 381.498 9.88708C391.978 16.4628 400.223 25.8127 406.234 37.9368C412.244 50.0609 415.25 64.4453 415.25 81.0902ZM396.755 81.0902C396.755 67.425 394.469 55.8917 389.897 46.4904C385.376 37.0891 379.237 29.974 371.48 25.1449C363.774 20.3158 355.143 17.9013 345.588 17.9013C336.032 17.9013 327.376 20.3158 319.619 25.1449C311.913 29.974 305.774 37.0891 301.201 46.4904C296.681 55.8917 294.42 67.425 294.42 81.0902C294.42 94.7555 296.681 106.288 301.201 115.69C305.774 125.091 311.913 132.206 319.619 137.035C327.376 141.864 336.032 144.279 345.588 144.279C355.143 144.279 363.774 141.864 371.48 137.035C379.237 132.206 385.376 125.091 389.897 115.69C394.469 106.288 396.755 94.7555 396.755 81.0902ZM699.893 81.0902C699.893 97.7351 696.887 112.119 690.877 124.243C684.866 136.367 676.621 145.717 666.141 152.293C655.66 158.869 643.691 162.157 630.231 162.157C616.771 162.157 604.801 158.869 594.321 152.293C583.841 145.717 575.595 136.367 569.585 124.243C563.574 112.119 560.569 97.7351 560.569 81.0902C560.569 64.4453 563.574 50.0609 569.585 37.9368C575.595 25.8127 583.841 16.4628 594.321 9.88708C604.801 3.31132 616.771 0.0234375 630.231 0.0234375C643.691 0.0234375 655.66 3.31132 666.141 9.88708C676.621 16.4628 684.866 25.8127 690.877 37.9368C696.887 50.0609 699.893 64.4453 699.893 81.0902ZM681.398 81.0902C681.398 67.425 679.112 55.8917 674.54 46.4904C670.019 37.0891 663.88 29.974 656.123 25.1449C648.417 20.3158 639.786 17.9013 630.231 17.9013C620.675 17.9013 612.019 20.3158 604.262 25.1449C596.556 29.974 590.417 37.0891 585.844 46.4904C581.324 55.8917 579.063 67.425 579.063 81.0902C579.063 94.7555 581.324 106.288 585.844 115.69C590.417 125.091 596.556 132.206 604.262 137.035C612.019 141.864 620.675 144.279 630.231 144.279C639.786 144.279 648.417 141.864 656.123 137.035C663.88 132.206 670.019 125.091 674.54 115.69C679.112 106.288 681.398 94.7555 681.398 81.0902ZM900.078 159.999H851.377V2.18111H902.236C917.545 2.18111 930.645 5.34056 941.536 11.6595C952.427 17.927 960.776 26.9429 966.581 38.7074C972.386 50.4205 975.289 64.4453 975.289 80.782C975.289 97.2214 972.36 111.374 966.504 123.242C960.647 135.057 952.119 144.15 940.92 150.521C929.721 156.84 916.107 159.999 900.078 159.999ZM870.487 143.046H898.845C911.894 143.046 922.708 140.529 931.287 135.494C939.867 130.459 946.263 123.293 950.475 113.994C954.688 104.696 956.794 93.6252 956.794 80.782C956.794 68.0414 954.714 57.0733 950.552 47.8775C946.391 38.6303 940.175 31.5408 931.904 26.609C923.633 21.6258 913.333 19.1342 901.003 19.1342H870.487V143.046ZM1145.81 2.18111V159.999H1126.7V2.18111H1145.81ZM1303.48 159.999V2.18111H1398.72V19.1342H1322.59V72.4595H1393.79V89.4127H1322.59V143.046H1399.95V159.999H1303.48Z" fill="black"/>
</g>
<path d="M1397.5 0.5H0.5V162.5H1397.5V0.5Z" stroke="black"/>
</g>
<defs>
<clipPath id="clip0_49_1615">
<rect width="1398" height="163" fill="white"/>
</clipPath>
</defs>
</svg>
