<svg width="184" height="54" viewBox="0 0 184 54" fill="none" xmlns="http://www.w3.org/2000/svg">
<g clip-path="url(#clip0_49_1600)">
<path d="M183.5 0.5H0.5V53.5H183.5V0.5Z" fill="#CA2C2C" stroke="black"/>
<path d="M39.6719 33.9993V20.1811H41.3452V32.5149H47.7685V33.9993H39.6719ZM61.4804 27.0902C61.4804 28.5476 61.2173 29.8071 60.691 30.8686C60.1647 31.9302 59.4428 32.7488 58.5251 33.3246C57.6075 33.9003 56.5595 34.1882 55.381 34.1882C54.2025 34.1882 53.1544 33.9003 52.2368 33.3246C51.3192 32.7488 50.5972 31.9302 50.071 30.8686C49.5447 29.8071 49.2815 28.5476 49.2815 27.0902C49.2815 25.6328 49.5447 24.3734 50.071 23.3118C50.5972 22.2502 51.3192 21.4316 52.2368 20.8558C53.1544 20.2801 54.2025 19.9922 55.381 19.9922C56.5595 19.9922 57.6075 20.2801 58.5251 20.8558C59.4428 21.4316 60.1647 22.2502 60.691 23.3118C61.2173 24.3734 61.4804 25.6328 61.4804 27.0902ZM59.8611 27.0902C59.8611 25.8937 59.6609 24.8839 59.2606 24.0607C58.8648 23.2376 58.3272 22.6146 57.648 22.1918C56.9733 21.7689 56.2176 21.5575 55.381 21.5575C54.5443 21.5575 53.7864 21.7689 53.1072 22.1918C52.4325 22.6146 51.8949 23.2376 51.4946 24.0607C51.0988 24.8839 50.9009 25.8937 50.9009 27.0902C50.9009 28.2867 51.0988 29.2965 51.4946 30.1197C51.8949 30.9428 52.4325 31.5658 53.1072 31.9886C53.7864 32.4115 54.5443 32.6229 55.381 32.6229C56.2176 32.6229 56.9733 32.4115 57.648 31.9886C58.3272 31.5658 58.8648 30.9428 59.2606 30.1197C59.6609 29.2965 59.8611 28.2867 59.8611 27.0902ZM75.9531 27.0902C75.9531 28.5476 75.6899 29.8071 75.1636 30.8686C74.6374 31.9302 73.9154 32.7488 72.9978 33.3246C72.0802 33.9003 71.0321 34.1882 69.8536 34.1882C68.6751 34.1882 67.6271 33.9003 66.7094 33.3246C65.7918 32.7488 65.0699 31.9302 64.5436 30.8686C64.0173 29.8071 63.7542 28.5476 63.7542 27.0902C63.7542 25.6328 64.0173 24.3734 64.5436 23.3118C65.0699 22.2502 65.7918 21.4316 66.7094 20.8558C67.6271 20.2801 68.6751 19.9922 69.8536 19.9922C71.0321 19.9922 72.0802 20.2801 72.9978 20.8558C73.9154 21.4316 74.6374 22.2502 75.1636 23.3118C75.6899 24.3734 75.9531 25.6328 75.9531 27.0902ZM74.3337 27.0902C74.3337 25.8937 74.1336 24.8839 73.7332 24.0607C73.3374 23.2376 72.7999 22.6146 72.1207 22.1918C71.446 21.7689 70.6903 21.5575 69.8536 21.5575C69.017 21.5575 68.259 21.7689 67.5798 22.1918C66.9051 22.6146 66.3676 23.2376 65.9673 24.0607C65.5714 24.8839 65.3735 25.8937 65.3735 27.0902C65.3735 28.2867 65.5714 29.2965 65.9673 30.1197C66.3676 30.9428 66.9051 31.5658 67.5798 31.9886C68.259 32.4115 69.017 32.6229 69.8536 32.6229C70.6903 32.6229 71.446 32.4115 72.1207 31.9886C72.7999 31.5658 73.3374 30.9428 73.7332 30.1197C74.1336 29.2965 74.3337 28.2867 74.3337 27.0902ZM78.7666 33.9993V20.1811H80.4399V27.0362H80.6018L86.8092 20.1811H88.9953L83.1928 26.4155L88.9953 33.9993H86.9712L82.1672 27.576L80.4399 29.5192V33.9993H78.7666ZM91.1612 33.9993V20.1811H95.9921C96.9547 20.1811 97.7486 20.3475 98.3739 20.6804C98.9991 21.0088 99.4647 21.4518 99.7705 22.0096C100.077 22.5629 100.23 23.1769 100.23 23.8516C100.23 24.4453 100.124 24.9356 99.9122 25.3225C99.7053 25.7093 99.4309 26.0152 99.0891 26.2401C98.7517 26.465 98.3851 26.6314 97.9893 26.7394V26.8743C98.4121 26.9013 98.8372 27.0497 99.2645 27.3196C99.6918 27.5895 100.05 27.9763 100.338 28.4801C100.626 28.9839 100.77 29.6002 100.77 30.3288C100.77 31.0216 100.612 31.6445 100.297 32.1978C99.9819 32.7511 99.4849 33.1896 98.8057 33.5135C98.1265 33.8374 97.2426 33.9993 96.1541 33.9993H91.1612ZM92.8344 32.5149H96.1541C97.2471 32.5149 98.023 32.3035 98.4818 31.8807C98.9451 31.4534 99.1768 30.9361 99.1768 30.3288C99.1768 29.861 99.0576 29.4292 98.8192 29.0334C98.5808 28.6331 98.2412 28.3137 97.8004 28.0753C97.3595 27.8324 96.8378 27.7109 96.235 27.7109H92.8344V32.5149ZM92.8344 26.2536H95.9381C96.4419 26.2536 96.8962 26.1546 97.3011 25.9567C97.7104 25.7588 98.0343 25.4799 98.2727 25.12C98.5156 24.7602 98.637 24.3374 98.637 23.8516C98.637 23.2443 98.4256 22.7293 98.0028 22.3065C97.58 21.8792 96.9097 21.6655 95.9921 21.6655H92.8344V26.2536ZM115.178 27.0902C115.178 28.5476 114.915 29.8071 114.389 30.8686C113.862 31.9302 113.14 32.7488 112.223 33.3246C111.305 33.9003 110.257 34.1882 109.079 34.1882C107.9 34.1882 106.852 33.9003 105.934 33.3246C105.017 32.7488 104.295 31.9302 103.769 30.8686C103.242 29.8071 102.979 28.5476 102.979 27.0902C102.979 25.6328 103.242 24.3734 103.769 23.3118C104.295 22.2502 105.017 21.4316 105.934 20.8558C106.852 20.2801 107.9 19.9922 109.079 19.9922C110.257 19.9922 111.305 20.2801 112.223 20.8558C113.14 21.4316 113.862 22.2502 114.389 23.3118C114.915 24.3734 115.178 25.6328 115.178 27.0902ZM113.559 27.0902C113.559 25.8937 113.359 24.8839 112.958 24.0607C112.562 23.2376 112.025 22.6146 111.346 22.1918C110.671 21.7689 109.915 21.5575 109.079 21.5575C108.242 21.5575 107.484 21.7689 106.805 22.1918C106.13 22.6146 105.593 23.2376 105.192 24.0607C104.796 24.8839 104.599 25.8937 104.599 27.0902C104.599 28.2867 104.796 29.2965 105.192 30.1197C105.593 30.9428 106.13 31.5658 106.805 31.9886C107.484 32.4115 108.242 32.6229 109.079 32.6229C109.915 32.6229 110.671 32.4115 111.346 31.9886C112.025 31.5658 112.562 30.9428 112.958 30.1197C113.359 29.2965 113.559 28.2867 113.559 27.0902ZM129.651 27.0902C129.651 28.5476 129.388 29.8071 128.861 30.8686C128.335 31.9302 127.613 32.7488 126.695 33.3246C125.778 33.9003 124.73 34.1882 123.551 34.1882C122.373 34.1882 121.325 33.9003 120.407 33.3246C119.49 32.7488 118.768 31.9302 118.241 30.8686C117.715 29.8071 117.452 28.5476 117.452 27.0902C117.452 25.6328 117.715 24.3734 118.241 23.3118C118.768 22.2502 119.49 21.4316 120.407 20.8558C121.325 20.2801 122.373 19.9922 123.551 19.9922C124.73 19.9922 125.778 20.2801 126.695 20.8558C127.613 21.4316 128.335 22.2502 128.861 23.3118C129.388 24.3734 129.651 25.6328 129.651 27.0902ZM128.031 27.0902C128.031 25.8937 127.831 24.8839 127.431 24.0607C127.035 23.2376 126.498 22.6146 125.818 22.1918C125.144 21.7689 124.388 21.5575 123.551 21.5575C122.715 21.5575 121.957 21.7689 121.277 22.1918C120.603 22.6146 120.065 23.2376 119.665 24.0607C119.269 24.8839 119.071 25.8937 119.071 27.0902C119.071 28.2867 119.269 29.2965 119.665 30.1197C120.065 30.9428 120.603 31.5658 121.277 31.9886C121.957 32.4115 122.715 32.6229 123.551 32.6229C124.388 32.6229 125.144 32.4115 125.818 31.9886C126.498 31.5658 127.035 30.9428 127.431 30.1197C127.831 29.2965 128.031 28.2867 128.031 27.0902ZM132.464 33.9993V20.1811H134.138V27.0362H134.3L140.507 20.1811H142.693L136.89 26.4155L142.693 33.9993H140.669L135.865 27.576L134.138 29.5192V33.9993H132.464Z" fill="white"/>
</g>
<defs>
<clipPath id="clip0_49_1600">
<rect width="184" height="54" fill="white"/>
</clipPath>
</defs>
</svg>
