<svg width="71" height="15" viewBox="0 0 71 15" fill="none" xmlns="http://www.w3.org/2000/svg">
<g clip-path="url(#clip0_49_1575)">
<path d="M70.5 0.5H0.5V13.5H70.5V0.5Z" fill="#D9D9D9" fill-opacity="0.13" stroke="black"/>
<path d="M10.2287 3.63565C10.1477 2.95194 9.81937 2.42117 9.24361 2.04332C8.66785 1.66548 7.96165 1.47656 7.125 1.47656C6.51326 1.47656 5.97797 1.57552 5.51917 1.77344C5.06486 1.97135 4.70951 2.24349 4.45312 2.58984C4.20122 2.9362 4.07528 3.32978 4.07528 3.7706C4.07528 4.13944 4.16299 4.45656 4.33841 4.72195C4.51834 4.98284 4.74774 5.20099 5.02662 5.37642C5.30551 5.54735 5.59788 5.68904 5.90375 5.80149C6.20963 5.90945 6.49077 5.99716 6.74716 6.06463L8.15057 6.44247C8.51042 6.53693 8.91074 6.66738 9.35155 6.83381C9.79687 7.00024 10.222 7.22739 10.6268 7.51527C11.0361 7.79865 11.3735 8.163 11.6389 8.60831C11.9043 9.05362 12.037 9.60014 12.037 10.2479C12.037 10.9946 11.8413 11.6693 11.45 12.272C11.0631 12.8748 10.4964 13.3538 9.74965 13.7092C9.00746 14.0645 8.10559 14.2422 7.04403 14.2422C6.05445 14.2422 5.19756 14.0825 4.47337 13.7631C3.75367 13.4438 3.1869 12.9985 2.77307 12.4272C2.36375 11.856 2.1321 11.1925 2.07812 10.4368H3.80539C3.85037 10.9586 4.0258 11.3904 4.33167 11.7323C4.64204 12.0696 5.03338 12.3215 5.50568 12.4879C5.98248 12.6499 6.49527 12.7308 7.04403 12.7308C7.68277 12.7308 8.25626 12.6274 8.76455 12.4205C9.27284 12.2091 9.67542 11.9167 9.97229 11.5433C10.2692 11.1655 10.4176 10.7247 10.4176 10.2209C10.4176 9.76207 10.2894 9.38873 10.033 9.10085C9.77663 8.81297 9.43928 8.57907 9.02095 8.39915C8.60263 8.21922 8.15057 8.06179 7.66477 7.92685L5.96448 7.44105C4.88493 7.13068 4.03029 6.68762 3.40056 6.11186C2.77082 5.5361 2.45597 4.78267 2.45597 3.85156C2.45597 3.07789 2.66513 2.40317 3.08345 1.82741C3.50627 1.24716 4.07304 0.797348 4.78374 0.477983C5.49894 0.154119 6.29735 -0.0078125 7.17898 -0.0078125C8.0696 -0.0078125 8.86127 0.15187 9.55398 0.471235C10.2467 0.786103 10.7955 1.21792 11.2003 1.76669C11.6096 2.31546 11.8255 2.93845 11.848 3.63565H10.2287ZM14.7881 0.181108H16.7853L21.4813 11.6513H21.6432L26.3392 0.181108H28.3364V13.9993H26.7711V3.50071H26.6361L22.3179 13.9993H20.8066L16.4884 3.50071H16.3534V13.9993H14.7881V0.181108ZM32.2582 13.9993H30.5039L35.5778 0.181108H37.3051L42.3789 13.9993H40.6247L36.4954 2.36719H36.3874L32.2582 13.9993ZM32.9059 8.60156H39.9769V10.0859H32.9059V8.60156ZM52.0881 3.63565C52.0071 2.95194 51.6788 2.42117 51.103 2.04332C50.5272 1.66548 49.821 1.47656 48.9844 1.47656C48.3727 1.47656 47.8374 1.57552 47.3786 1.77344C46.9243 1.97135 46.5689 2.24349 46.3125 2.58984C46.0606 2.9362 45.9347 3.32978 45.9347 3.7706C45.9347 4.13944 46.0224 4.45656 46.1978 4.72195C46.3777 4.98284 46.6071 5.20099 46.886 5.37642C47.1649 5.54735 47.4573 5.68904 47.7632 5.80149C48.069 5.90945 48.3502 5.99716 48.6066 6.06463L50.01 6.44247C50.3698 6.53693 50.7701 6.66738 51.211 6.83381C51.6563 7.00024 52.0813 7.22739 52.4862 7.51527C52.8955 7.79865 53.2329 8.163 53.4982 8.60831C53.7636 9.05362 53.8963 9.60014 53.8963 10.2479C53.8963 10.9946 53.7007 11.6693 53.3093 12.272C52.9225 12.8748 52.3557 13.3538 51.609 13.7092C50.8669 14.0645 49.965 14.2422 48.9034 14.2422C47.9138 14.2422 47.057 14.0825 46.3328 13.7631C45.6131 13.4438 45.0463 12.9985 44.6325 12.4272C44.2232 11.856 43.9915 11.1925 43.9375 10.4368H45.6648C45.7098 10.9586 45.8852 11.3904 46.1911 11.7323C46.5014 12.0696 46.8928 12.3215 47.3651 12.4879C47.8419 12.6499 48.3547 12.7308 48.9034 12.7308C49.5422 12.7308 50.1157 12.6274 50.624 12.4205C51.1322 12.2091 51.5348 11.9167 51.8317 11.5433C52.1286 11.1655 52.277 10.7247 52.277 10.2209C52.277 9.76207 52.1488 9.38873 51.8924 9.10085C51.636 8.81297 51.2987 8.57907 50.8803 8.39915C50.462 8.21922 50.01 8.06179 49.5242 7.92685L47.8239 7.44105C46.7443 7.13068 45.8897 6.68762 45.26 6.11186C44.6302 5.5361 44.3154 4.78267 44.3154 3.85156C44.3154 3.07789 44.5245 2.40317 44.9428 1.82741C45.3657 1.24716 45.9324 0.797348 46.6431 0.477983C47.3583 0.154119 48.1567 -0.0078125 49.0384 -0.0078125C49.929 -0.0078125 50.7207 0.15187 51.4134 0.471235C52.1061 0.786103 52.6549 1.21792 53.0597 1.76669C53.469 2.31546 53.6849 2.93845 53.7074 3.63565H52.0881ZM56.6475 13.9993V0.181108H58.3208V6.33452H65.6887V0.181108H67.362V13.9993H65.6887V7.81889H58.3208V13.9993H56.6475Z" fill="white"/>
</g>
<defs>
<clipPath id="clip0_49_1575">
<rect width="71" height="15" fill="white"/>
</clipPath>
</defs>
</svg>
